<svg xmlns="http://www.w3.org/2000/svg" version="1.1" xmlns:xlink="http://www.w3.org/1999/xlink" xmlns:svgjs="http://svgjs.dev/svgjs" width="200" height="100" viewBox="0 0 2000 565"><g transform="matrix(1,0,0,1,-1.2121212121212466,-1.4373260663177234)"><svg viewBox="0 0 396 112" data-background-color="#ffffff" preserveAspectRatio="xMidYMid meet" height="565" width="2000" xmlns="http://www.w3.org/2000/svg" xmlns:xlink="http://www.w3.org/1999/xlink"><g id="tight-bounds" transform="matrix(1,0,0,1,0.2400000000000091,0.28492127332316386)"><svg viewBox="0 0 395.52 111.43015745335369" height="111.43015745335369" width="395.52"><g><svg viewBox="0 0 521.5107531603096 146.92563040622565" height="111.43015745335369" width="395.52"><g><rect width="6.165637155358881" height="146.92563040622565" x="103.68470460348776" y="0" fill="#fb0d00" opacity="1" stroke-width="0" stroke="transparent" fill-opacity="1" class="rect-yte-0" data-fill-palette-color="primary" rx="1%" id="yte-0" data-palette-color="#fb0d00"></rect></g><g transform="matrix(1,0,0,1,125.99075316030968,0.3654866428015424)"><svg viewBox="0 0 395.52 146.19465712062257" height="146.19465712062257" width="395.52"><g id="textblocktransform"><svg viewBox="0 0 395.52 146.19465712062257" height="146.19465712062257" width="395.52" id="textblock"><g><svg viewBox="0 0 395.52 146.19465712062257" height="146.19465712062257" width="395.52"><g transform="matrix(1,0,0,1,0,0)"><svg width="395.52" viewBox="33.18000000000001 -36.01 250.98000000000002 89.86" height="146.19465712062257" data-palette-color="#fb0d00"><svg></svg><svg></svg><g class="wordmark-text-0" data-fill-palette-color="primary" id="text-0"><path transform="translate(31.3,0)" d="M32.79-10.74v0c0 1.513-0.193 2.847-0.58 4-0.38 1.16-0.917 2.16-1.61 3-0.687 0.847-1.503 1.557-2.45 2.13-0.947 0.567-1.977 1.023-3.09 1.37-1.113 0.34-2.293 0.583-3.54 0.73-1.247 0.147-2.513 0.22-3.8 0.22v0c-1.687 0-3.247-0.127-4.68-0.38-1.433-0.253-2.78-0.653-4.04-1.2-1.267-0.54-2.48-1.243-3.64-2.11-1.167-0.86-2.327-1.91-3.48-3.15v0l4.98-5.05c0.453 1.12 1.08 2.157 1.88 3.11 0.8 0.953 1.673 1.77 2.62 2.45 0.953 0.687 1.943 1.227 2.97 1.62 1.027 0.387 1.997 0.58 2.91 0.58v0c1.073 0 2.08-0.077 3.02-0.23 0.947-0.153 1.77-0.41 2.47-0.77 0.7-0.36 1.25-0.837 1.65-1.43 0.4-0.593 0.6-1.337 0.6-2.23v0c0-0.687-0.157-1.273-0.47-1.76-0.307-0.487-0.71-0.907-1.21-1.26-0.493-0.347-1.057-0.643-1.69-0.89-0.64-0.24-1.287-0.447-1.94-0.62-0.66-0.173-1.31-0.327-1.95-0.46-0.633-0.14-1.193-0.283-1.68-0.43v0c-0.96-0.28-1.96-0.577-3-0.89-1.047-0.32-2.073-0.683-3.08-1.09-1.007-0.407-1.963-0.873-2.87-1.4-0.9-0.533-1.693-1.16-2.38-1.88-0.68-0.727-1.223-1.567-1.63-2.52-0.407-0.953-0.61-2.047-0.61-3.28v0c0-1.48 0.183-2.793 0.55-3.94 0.36-1.147 0.877-2.143 1.55-2.99 0.667-0.847 1.453-1.56 2.36-2.14 0.913-0.58 1.917-1.043 3.01-1.39 1.087-0.353 2.247-0.607 3.48-0.76 1.227-0.153 2.483-0.23 3.77-0.23v0c1.753 0 3.35 0.163 4.79 0.49 1.447 0.327 2.78 0.79 4 1.39 1.22 0.6 2.337 1.32 3.35 2.16 1.02 0.84 1.977 1.773 2.87 2.8v0l-4.98 5.05c-0.387-1.173-0.927-2.23-1.62-3.17-0.693-0.947-1.463-1.757-2.31-2.43-0.847-0.68-1.733-1.203-2.66-1.57-0.927-0.367-1.823-0.55-2.69-0.55v0c-1.12 0-2.153 0.08-3.1 0.24-0.94 0.153-1.75 0.403-2.43 0.75-0.673 0.353-1.197 0.827-1.57 1.42-0.373 0.593-0.56 1.33-0.56 2.21v0c0 0.7 0.137 1.293 0.41 1.78 0.28 0.487 0.65 0.903 1.11 1.25 0.467 0.34 0.993 0.62 1.58 0.84 0.587 0.22 1.193 0.41 1.82 0.57 0.627 0.167 1.243 0.31 1.85 0.43 0.613 0.12 1.173 0.253 1.68 0.4v0c0.973 0.28 1.997 0.573 3.07 0.88 1.073 0.307 2.133 0.67 3.18 1.09 1.04 0.413 2.03 0.89 2.97 1.43 0.947 0.533 1.777 1.17 2.49 1.91 0.72 0.74 1.29 1.597 1.71 2.57 0.427 0.967 0.64 2.077 0.64 3.33zM42.02-35.16h7.1c-0.44 1.32-0.823 2.683-1.15 4.09-0.32 1.407-0.587 2.817-0.8 4.23-0.213 1.407-0.373 2.793-0.48 4.16-0.107 1.367-0.16 2.66-0.16 3.88v0c0 0.893 0.007 1.9 0.02 3.02 0.007 1.113 0.07 2.247 0.19 3.4 0.12 1.16 0.32 2.287 0.6 3.38 0.273 1.1 0.683 2.083 1.23 2.95 0.547 0.86 1.247 1.55 2.1 2.07 0.853 0.52 1.917 0.78 3.19 0.78v0c1.12 0 2.083-0.19 2.89-0.57 0.807-0.387 1.49-0.903 2.05-1.55 0.56-0.653 1.007-1.403 1.34-2.25 0.333-0.847 0.597-1.733 0.79-2.66 0.187-0.927 0.307-1.867 0.36-2.82 0.06-0.953 0.09-1.86 0.09-2.72v0-19.39h9.69v17.87c0 2.56-0.407 4.937-1.22 7.13-0.813 2.2-1.96 4.11-3.44 5.73-1.487 1.62-3.277 2.89-5.37 3.81-2.1 0.92-4.43 1.38-6.99 1.38v0c-1.753 0-3.387-0.25-4.9-0.75-1.513-0.493-2.903-1.177-4.17-2.05-1.26-0.867-2.383-1.9-3.37-3.1-0.98-1.193-1.8-2.5-2.46-3.92-0.66-1.413-1.16-2.907-1.5-4.48-0.347-1.567-0.503-3.157-0.47-4.77v0-0.49c0.02-1.3 0.15-2.647 0.39-4.04 0.247-1.393 0.577-2.79 0.99-4.19 0.413-1.4 0.913-2.787 1.5-4.16 0.587-1.373 1.24-2.697 1.96-3.97zM112.7-17.63v0c0 1.713-0.23 3.337-0.69 4.87-0.453 1.54-1.09 2.96-1.91 4.26-0.827 1.307-1.81 2.483-2.95 3.53-1.14 1.053-2.397 1.947-3.77 2.68-1.373 0.727-2.847 1.29-4.42 1.69-1.567 0.4-3.18 0.6-4.84 0.6v0h-15.51v-35.16h15.51c1.66 0 3.27 0.197 4.83 0.59 1.56 0.393 3.03 0.95 4.41 1.67 1.373 0.727 2.633 1.61 3.78 2.65 1.147 1.04 2.133 2.207 2.96 3.5 0.82 1.3 1.457 2.717 1.91 4.25 0.46 1.54 0.69 3.163 0.69 4.87zM102.86-17.63v0c0-1.9-0.233-3.71-0.7-5.43-0.467-1.713-1.187-3.223-2.16-4.53-0.973-1.3-2.213-2.333-3.72-3.1-1.507-0.767-3.31-1.15-5.41-1.15v0h-2.56v28.42h2.56c2.067 0 3.853-0.387 5.36-1.16 1.507-0.773 2.75-1.813 3.73-3.12 0.987-1.313 1.717-2.823 2.19-4.53 0.473-1.707 0.71-3.507 0.71-5.4zM128.34-15.33v15.33h-9.69v-35.16h9.69v15.36h12.85v-15.36h9.69v35.16h-9.69v-15.33zM184.08-4.49v4.49h-25.24v-35.16h25.24v4.5h-15.55v10.86h12.01v4.47h-12.01v10.84zM215.33-4.49v4.49h-25.24v-35.16h25.24v4.5h-15.55v10.86h12.01v4.47h-12.01v10.84zM231.03-13.13v13.13h-9.69v-35.16h17.28c1.627 0 3.197 0.193 4.71 0.58 1.52 0.38 2.86 0.98 4.02 1.8 1.167 0.827 2.093 1.89 2.78 3.19 0.693 1.3 1.04 2.88 1.04 4.74v0c0 1.447-0.303 2.81-0.91 4.09-0.613 1.273-1.43 2.41-2.45 3.41-1.013 1.007-2.18 1.837-3.5 2.49-1.32 0.66-2.687 1.097-4.1 1.31v0c0.633 1.073 1.297 2.09 1.99 3.05 0.693 0.96 1.393 1.86 2.1 2.7 0.707 0.84 1.41 1.613 2.11 2.32 0.7 0.707 1.367 1.353 2 1.94v0c1.5 1.367 2.983 2.547 4.45 3.54v0h-12.09c-0.973-0.927-1.9-2.04-2.78-3.34v0c-0.747-1.107-1.5-2.48-2.26-4.12-0.76-1.633-1.343-3.523-1.75-5.67v0zM241.33-24.85v0c0-2.36-0.573-4.093-1.72-5.2-1.147-1.107-2.867-1.66-5.16-1.66v0h-3.42v15.25h3.42c1.22 0 2.267-0.23 3.14-0.69 0.867-0.467 1.577-1.087 2.13-1.86 0.553-0.773 0.96-1.663 1.22-2.67 0.26-1.007 0.39-2.063 0.39-3.17z" fill="#fb0d00" fill-rule="nonzero" stroke="none" stroke-width="1" stroke-linecap="butt" stroke-linejoin="miter" stroke-miterlimit="10" stroke-dasharray="" stroke-dashoffset="0" font-family="none" font-weight="none" font-size="none" text-anchor="none" style="mix-blend-mode: normal" data-fill-palette-color="primary" opacity="1"></path><path transform="translate(78.39,46.38)" d="M36.35-9.55v0c0 0.993-0.163 1.923-0.49 2.79-0.32 0.86-0.767 1.643-1.34 2.35-0.567 0.713-1.23 1.347-1.99 1.9-0.753 0.553-1.567 1.017-2.44 1.39-0.873 0.373-1.773 0.653-2.7 0.84-0.927 0.187-1.837 0.28-2.73 0.28v0h-20.68v-35.16h18.9c0.827 0 1.697 0.063 2.61 0.19 0.913 0.12 1.803 0.31 2.67 0.57 0.873 0.26 1.703 0.603 2.49 1.03 0.793 0.42 1.487 0.937 2.08 1.55 0.593 0.607 1.063 1.31 1.41 2.11 0.353 0.793 0.53 1.703 0.53 2.73v0c0 0.98-0.197 1.867-0.59 2.66-0.387 0.8-0.91 1.513-1.57 2.14-0.66 0.627-1.417 1.18-2.27 1.66-0.853 0.48-1.753 0.9-2.7 1.26v0c1.187 0.327 2.313 0.757 3.38 1.29 1.067 0.54 2.003 1.2 2.81 1.98 0.807 0.78 1.443 1.703 1.91 2.77 0.473 1.067 0.71 2.29 0.71 3.67zM24.83-26.12v0c0-1.987-0.527-3.437-1.58-4.35-1.047-0.913-2.54-1.37-4.48-1.37v0h-5.1v11.41h4.27c0.88 0 1.737-0.11 2.57-0.33 0.827-0.22 1.563-0.563 2.21-1.03 0.64-0.467 1.153-1.057 1.54-1.77 0.38-0.713 0.57-1.567 0.57-2.56zM26.54-10.16v0c0-0.96-0.123-1.857-0.37-2.69-0.24-0.84-0.613-1.567-1.12-2.18-0.507-0.607-1.137-1.087-1.89-1.44-0.76-0.347-1.653-0.52-2.68-0.52v0h-6.81v13.57h5.96c0.993 0 1.913-0.163 2.76-0.49 0.847-0.32 1.577-0.773 2.19-1.36 0.62-0.587 1.103-1.297 1.45-2.13 0.34-0.827 0.51-1.747 0.51-2.76zM51.83-15.33v15.33h-9.69v-35.16h9.69v15.36h12.84v-15.36h9.7v35.16h-9.7v-15.33zM115.8-16.82v0 0.46c-0.033 1.367-0.177 2.783-0.43 4.25-0.253 1.467-0.607 2.933-1.06 4.4-0.46 1.46-1.007 2.907-1.64 4.34-0.633 1.433-1.347 2.803-2.14 4.11-0.787 1.313-1.637 2.543-2.55 3.69-0.907 1.147-1.867 2.16-2.88 3.04v0l-3.64-2.1c0.573-0.96 1.093-2.007 1.56-3.14 0.46-1.127 0.877-2.31 1.25-3.55 0.373-1.233 0.697-2.503 0.97-3.81 0.267-1.3 0.49-2.593 0.67-3.88 0.18-1.287 0.313-2.553 0.4-3.8 0.093-1.24 0.14-2.423 0.14-3.55v0c0-0.88-0.007-1.877-0.02-2.99-0.007-1.113-0.07-2.247-0.19-3.4-0.127-1.16-0.327-2.29-0.6-3.39-0.28-1.093-0.69-2.073-1.23-2.94-0.547-0.86-1.247-1.55-2.1-2.07-0.853-0.52-1.917-0.78-3.19-0.78v0c-1.12 0-2.083 0.19-2.89 0.57-0.807 0.38-1.49 0.893-2.05 1.54-0.567 0.64-1.017 1.383-1.35 2.23-0.333 0.847-0.593 1.74-0.78 2.68-0.187 0.933-0.307 1.877-0.36 2.83-0.06 0.953-0.09 1.853-0.09 2.7v0 6.81h10.52v4.03h-10.52v8.54h-9.69v-17.87c0-2.553 0.407-4.93 1.22-7.13 0.813-2.2 1.963-4.11 3.45-5.73 1.493-1.613 3.287-2.88 5.38-3.8 2.087-0.92 4.417-1.38 6.99-1.38v0c1.74 0 3.373 0.247 4.9 0.74 1.52 0.5 2.907 1.183 4.16 2.05 1.253 0.873 2.37 1.907 3.35 3.1 0.987 1.2 1.81 2.507 2.47 3.92 0.66 1.42 1.16 2.917 1.5 4.49 0.34 1.58 0.497 3.177 0.47 4.79zM136.55-30.66v30.66h-9.69v-30.66h-9.57v-4.5h28.83v4.5zM160.77-35.16v35.16h-9.7v-35.16z" fill="#fb0d00" fill-rule="nonzero" stroke="none" stroke-width="1" stroke-linecap="butt" stroke-linejoin="miter" stroke-miterlimit="10" stroke-dasharray="" stroke-dashoffset="0" font-family="none" font-weight="none" font-size="none" text-anchor="none" style="mix-blend-mode: normal" data-fill-palette-color="primary" opacity="1"></path></g></svg></g></svg></g></svg></g></svg></g><g transform="matrix(1,0,0,1,0,0.3654866428015424)"><svg viewBox="0 0 87.54429320202472 146.19465712062257" height="146.19465712062257" width="87.54429320202472"><g><svg xmlns="http://www.w3.org/2000/svg" xmlns:xlink="http://www.w3.org/1999/xlink" version="1.1" x="0" y="0" viewBox="24.8 11.1 40.60000000000001 67.80000000000001" enable-background="new 0 0 90 90" xml:space="preserve" height="146.19465712062257" width="87.54429320202472" class="icon-icon-0" data-fill-palette-color="accent" id="icon-0"><path d="M62.6 58H24.8V78.9H27.4V60.3H33V77.6H57.2V60.3H62.8V78.9H65.4V58zM34.7 60.3C34.5 60.5 34.4 60.7 34.2 60.9V60.3zM34.2 64.1C34.5 62.4 35.5 61.1 36.8 60.3H41.5C42.9 61.1 44 62.5 44.2 64.3V69.7C43 68.2 41.2 67.3 39.3 67.3 37.2 67.3 35.4 68.3 34.2 69.9zM44.3 72.7V73.1H34.3C34.6 70.5 36.7 68.5 39.3 68.5 41.8 68.6 43.8 70.3 44.3 72.7M44.3 74.6V76.2H34.3V74.5zM43.7 60.3H46.2C45.7 60.8 45.3 61.4 45 62.1 44.6 61.4 44.2 60.8 43.7 60.3M45.6 64.3C45.8 62.6 46.8 61.1 48.3 60.3H53C54.4 61.1 55.5 62.5 55.7 64.3V69.9C54.5 68.3 52.7 67.3 50.6 67.3S46.7 68.4 45.5 70V64.3zM45.7 73.2C46 70.6 48.1 68.6 50.7 68.6S55.4 70.6 55.7 73.2zM55.8 76.1H45.8V74.5H55.8zM55.8 61C55.6 60.8 55.4 60.5 55.2 60.3H55.8zM45.2 37.3C51.9 37.3 57.4 31.8 57.4 25 57.4 22.1 56.6 20.5 55.9 19.6 55.9 19.6 55.8 19.5 55.7 19.3L55.6 19.2C54.7 18.3 51.8 16.3 45.2 16.3H44.9C42.9 16.3 36.4 16.5 34.4 19.6 33.8 20.5 33 22.1 33 25 33 31.8 38.5 37.3 45.2 37.3M35.2 20.2C37 17.4 43.6 17.3 45 17.3H45.3C51.8 17.3 54.4 19.4 55.1 20L55.2 20.1 55.4 20.3C55.9 20.9 56.7 22.3 56.7 25.1 56.7 31.4 51.6 36.6 45.4 36.6S34.1 31.5 34.1 25.1C33.9 22.2 34.7 20.8 35.2 20.2M31 57.8L32 56.8C28.4 53.7 27 49.7 27.8 45.1 28.2 42.9 28.9 41.2 29.5 40.1 29.6 40 29.6 39.9 29.7 39.7 30.7 37.7 32.3 36 34.2 34.6 36.9 37.7 40.9 39.6 45.3 39.6 49.6 39.6 53.6 37.7 56.2 34.8 58 36.2 59.4 37.8 60.4 39.7 60.5 39.8 60.5 40 60.6 40.1 61.1 41.2 61.9 43 62.3 45.1 63.1 49.7 61.6 53.7 58.1 56.8L59.1 57.8C66 51.8 63.9 44.2 62.3 40.4V27C62.3 25.9 61.4 25 60.3 25H59.9C59.7 17.3 53.2 11.1 45.3 11.1S30.9 17.3 30.7 25H30.3C29.2 25 28.3 25.9 28.3 27V39.5C26.5 42.8 23.5 51.3 31 57.8M60.2 26.3C60.6 26.3 60.9 26.6 60.9 27V38C59.9 36.4 58.6 35 57 33.8 58.6 31.7 59.6 29.1 59.8 26.4H60.2zM45.2 12.5C52.5 12.5 58.4 18.3 58.4 25.4S52.5 38.3 45.2 38.3 32 32.5 32 25.4 37.9 12.5 45.2 12.5M29.5 27C29.5 26.6 29.8 26.3 30.2 26.3H30.7C30.9 29 31.8 31.4 33.3 33.5 31.8 34.6 30.6 35.9 29.5 37.3zM56.9 55.9V40C56.9 39.4 56.5 38.9 55.9 38.9H34C33.5 38.9 33 39.4 33 40V55.8H29.8V57.1C29.8 57.7 30.2 58.2 30.8 58.2H59.3C59.8 58.2 60.3 57.7 60.3 57.1V55.8H56.9zM45 50.1C44 50.1 43.3 49.3 43.3 48.4 43.3 47.4 44.1 46.7 45 46.7 46 46.7 46.7 47.5 46.7 48.4S46 50.1 45 50.1" fill="#001f3f" data-fill-palette-color="accent"></path></svg></g></svg></g></svg></g><defs></defs></svg><rect width="395.52" height="111.43015745335369" fill="none" stroke="none" visibility="hidden"></rect></g></svg></g></svg>