<?xml version="1.0" standalone="no"?>
<!DOCTYPE svg PUBLIC "-//W3C//DTD SVG 20010904//EN"
 "http://www.w3.org/TR/2001/REC-SVG-20010904/DTD/svg10.dtd">
<svg version="1.0" xmlns="http://www.w3.org/2000/svg"
 width="500.000000pt" height="500.000000pt" viewBox="0 0 500.000000 500.000000"
 preserveAspectRatio="xMidYMid meet">

<g transform="translate(0.000000,500.000000) scale(0.100000,-0.100000)"
fill="#000000" stroke="none">
<path d="M1490 3847 l0 -412 483 -483 482 -482 413 0 412 0 0 406 0 406 -482
489 -481 489 -414 0 -413 0 0 -413z"/>
<path d="M2935 3920 c187 -187 341 -340 342 -340 2 0 3 153 3 340 l0 340 -342
0 -343 0 340 -340z"/>
<path d="M1490 2810 l0 -340 347 0 348 0 -340 340 c-187 187 -343 340 -347
340 -5 0 -8 -153 -8 -340z"/>
<path d="M3493 2626 c-22 -19 -28 -32 -28 -65 0 -50 26 -79 78 -88 31 -5 40
-1 67 25 40 41 41 83 1 123 -37 36 -79 38 -118 5z m112 -16 c42 -46 10 -120
-52 -120 -62 0 -94 65 -57 118 20 29 83 31 109 2z"/>
<path d="M3510 2560 c0 -27 5 -50 10 -50 6 0 10 9 10 20 0 11 4 20 10 20 5 0
15 -9 22 -20 17 -26 32 -26 18 1 -9 15 -8 24 1 35 17 20 -6 44 -42 44 -28 0
-29 -2 -29 -50z m60 20 c0 -5 -9 -10 -20 -10 -11 0 -20 5 -20 10 0 6 9 10 20
10 11 0 20 -4 20 -10z"/>
<path d="M957 2227 c-69 -42 -77 -63 -77 -222 0 -121 3 -144 20 -172 40 -66
47 -67 333 -73 l259 -5 24 -28 c31 -37 31 -81 -1 -112 -24 -25 -25 -25 -225
-25 -200 0 -201 0 -225 25 -14 13 -25 31 -25 40 0 12 -15 15 -80 15 l-80 0 0
-69 c0 -79 22 -121 80 -155 33 -20 50 -21 330 -21 280 0 297 1 330 21 19 11
45 35 57 54 21 30 23 44 23 170 0 126 -2 140 -22 170 -51 75 -50 74 -340 80
-258 5 -260 5 -279 29 -28 35 -24 77 10 112 l29 29 190 0 c175 0 191 -2 215
-20 14 -11 29 -29 32 -40 6 -18 15 -20 86 -20 l79 0 0 64 c0 72 -22 115 -79
153 -33 23 -39 23 -330 23 -291 0 -297 0 -334 -23z"/>
<path d="M1790 1835 l0 -415 415 0 415 0 0 85 0 85 -335 0 -335 0 0 330 0 330
-80 0 -80 0 0 -415z"/>
<path d="M2380 2170 l0 -80 165 0 165 0 2 -332 3 -333 83 -3 82 -3 0 336 0
335 165 0 165 0 0 80 0 80 -415 0 -415 0 0 -80z"/>
<path d="M3300 1835 l0 -415 410 0 410 0 0 85 0 85 -330 0 -330 0 0 330 0 330
-80 0 -80 0 0 -415z"/>
<path d="M2933 1151 c-55 -25 -83 -79 -83 -156 0 -120 75 -187 189 -169 l56 9
3 78 c2 63 0 77 -12 77 -12 0 -16 -16 -18 -67 l-3 -68 -48 -3 c-32 -2 -57 2
-73 13 -82 54 -86 192 -8 254 29 23 101 29 134 11 13 -7 19 -6 23 4 4 10 -5
18 -25 25 -45 16 -87 13 -135 -8z"/>
<path d="M3193 1073 c-10 -3 -13 -38 -13 -124 0 -99 3 -119 15 -119 12 0 15
19 15 110 0 108 0 110 24 116 14 3 34 3 45 -1 15 -5 21 -2 21 9 0 12 -11 16
-47 15 -27 0 -54 -3 -60 -6z"/>
<path d="M3380 1052 c-88 -88 -7 -259 105 -222 65 22 98 96 76 170 -16 53 -52
80 -108 80 -36 0 -50 -6 -73 -28z m105 -2 c58 -22 70 -139 18 -180 -76 -60
-160 35 -119 134 8 20 25 40 38 46 30 12 32 12 63 0z"/>
<path d="M3640 981 c0 -85 3 -102 21 -125 20 -25 25 -27 93 -24 l71 3 3 123
c2 103 0 122 -12 122 -13 0 -16 -20 -18 -112 l-3 -113 -41 -3 c-28 -2 -48 3
-64 16 -20 16 -23 29 -28 115 -2 53 -9 97 -13 97 -5 0 -9 -44 -9 -99z"/>
<path d="M3928 1073 c-16 -4 -18 -21 -18 -169 0 -139 2 -164 15 -164 11 0 15
12 15 50 0 28 1 50 3 50 1 0 18 -4 37 -10 44 -13 92 2 120 37 15 19 20 41 20
85 0 55 -3 63 -34 94 -31 31 -39 34 -87 33 -30 -1 -62 -3 -71 -6z m140 -49
c32 -37 31 -116 -3 -149 -26 -26 -57 -31 -99 -15 -25 9 -26 12 -26 99 0 85 1
90 23 94 40 9 82 -3 105 -29z"/>
</g>
</svg>
